<?xml version="1.0" encoding="UTF-8" standalone="no"?>
<svg
   xmlns:dc="http://purl.org/dc/elements/1.1/"
   xmlns:cc="http://creativecommons.org/ns#"
   xmlns:rdf="http://www.w3.org/1999/02/22-rdf-syntax-ns#"
   xmlns:svg="http://www.w3.org/2000/svg"
   xmlns="http://www.w3.org/2000/svg"
   xmlns:sodipodi="http://sodipodi.sourceforge.net/DTD/sodipodi-0.dtd"
   xmlns:inkscape="http://www.inkscape.org/namespaces/inkscape"
   width="24"
   height="24"
   viewBox="0 0 24 24"
   version="1.1"
   id="svg8"
   sodipodi:docname="logo.svg"
   inkscape:version="1.0.1 (3bc2e813f5, 2020-09-07)">
  <defs
     id="defs2">
    <style
       type="text/css"
       id="style917"><![CDATA[
    .str0 {stroke:#373435;stroke-width:0.1;stroke-miterlimit:22.9256;stroke-opacity:0.000000}
    .str1 {stroke:#FEFEFE;stroke-width:1.06;stroke-miterlimit:22.9256}
    .fil3 {fill:#FFF212}
    .fil2 {fill:#ED3237}
    .fil1 {fill:#FEFEFE;fill-rule:nonzero}
    .fil4 {fill:#ED3237;fill-rule:nonzero}
    .fil0 {fill:#00AFEF;fill-opacity:0.000000}
   ]]></style>
  </defs>
  <sodipodi:namedview
     id="base"
     pagecolor="#ffffff"
     bordercolor="#666666"
     borderopacity="1.0"
     inkscape:pageopacity="0.0"
     inkscape:pageshadow="2"
     inkscape:zoom="20.851298"
     inkscape:cx="12.654142"
     inkscape:cy="13.879696"
     inkscape:document-units="px"
     inkscape:current-layer="svg8"
     inkscape:document-rotation="0"
     showgrid="true"
     inkscape:window-width="1431"
     inkscape:window-height="1033"
     inkscape:window-x="160"
     inkscape:window-y="0"
     inkscape:window-maximized="0"
     units="px"
     inkscape:snap-page="false"
     inkscape:snap-grids="true"
     inkscape:lockguides="true">
    <inkscape:grid
       type="xygrid"
       id="grid17" />
  </sodipodi:namedview>
  <metadata
     id="metadata5">
    <rdf:RDF>
      <cc:Work
         rdf:about="">
        <dc:format>image/svg+xml</dc:format>
        <dc:type
           rdf:resource="http://purl.org/dc/dcmitype/StillImage" />
        <dc:title></dc:title>
      </cc:Work>
    </rdf:RDF>
  </metadata>
  <g
     id="g1730">
    <path
       style="fill:#fdd1d1;stroke-width:1"
       d="M 10.806427,23.811416 C 7.7994564,23.497099 4.9710021,21.898161 3.1569247,19.48712 2.8529758,19.083149 2.0793758,17.847587 2.0206915,17.672374 c -0.011739,-0.03505 -0.2420697,0.0432 -0.5257911,0.178634 -0.4428333,0.211381 -0.502432,0.25833 -0.4848205,0.38192 0.029394,0.206279 -0.0815735,0.291468 -0.21838662,0.167654 C 0.6537006,18.275701 0.6070614,18.275011 0.47350523,18.395878 0.35243569,18.505444 0.24,18.462719 0.24,18.307147 c 0,-0.05817 0.0426507,-0.230943 0.0947793,-0.383933 0.10737264,-0.315121 0.27147617,-0.410451 0.44157311,-0.256515 0.10024008,0.09072 0.1406832,0.08251 0.58006929,-0.117727 0.2597741,-0.118383 0.4963164,-0.258127 0.5256497,-0.310542 0.029333,-0.05242 0.9003672,-0.50981 1.9356309,-1.016432 1.0352637,-0.506622 1.8822051,-0.928076 1.882092,-0.936564 -1.14e-4,-0.0085 -0.080861,-0.213361 -0.1794389,-0.455272 C 5.0836775,13.758555 4.8921556,12.709099 4.8943632,11.4 4.8962455,10.28383 5.0178579,9.5093088 5.3471057,8.5165878 6.5313,4.946101 9.8220528,2.3411238 13.44,2.1102095 L 14.07,2.07 14.087482,1.5716102 c 0.01611,-0.4593783 0.0055,-0.5125743 -0.135,-0.67960352 -0.192146,-0.2283516 -0.193878,-0.43606555 -0.0052,-0.62473395 0.294861,-0.29486106 0.602594,-0.16448965 0.6639,0.28126193 0.03789,0.27550324 0.02811,0.32149336 -0.08687,0.40821778 C 14.40662,1.0455231 14.396353,1.1010613 14.412368,1.5622439 L 14.43,2.07 14.97,2.113421 c 1.243448,0.099985 2.554727,0.46969 3.78,1.065742 1.072891,0.5219237 1.760882,1.0031755 2.525349,1.7664905 0.540767,0.5399519 0.707386,0.7497947 0.889849,1.1206956 0.173686,0.3530586 0.225167,0.5306226 0.227449,0.7845 0.0034,0.3822594 -0.140655,0.7317852 -0.362215,0.8786442 -0.0834,0.055279 -1.786518,0.901977 -3.784713,1.8815526 -1.998195,0.9795751 -3.641133,1.8051971 -3.650973,1.8347161 -0.0098,0.02952 1.251817,1.059076 2.803682,2.287904 1.551865,1.228828 2.821572,2.272956 2.821572,2.320283 0,0.101888 0.03015,0.106249 0.180016,0.02604 0.07058,-0.03777 0.165891,-0.03957 0.257237,-0.0048 0.114587,0.04357 0.152993,0.112684 0.182587,0.328596 0.04663,0.340195 0.0075,0.447098 -0.180882,0.494383 -0.23724,0.05954 -0.448852,-0.06906 -0.43369,-0.263569 C 20.25196,16.292147 20.224285,16.2 20.094755,16.2 c -0.07427,0 -1.281525,-0.915841 -2.965946,-2.25 -1.562386,-1.2375 -2.871736,-2.25 -2.909667,-2.25 -0.07047,0 -7.8493452,3.764244 -7.9379586,3.841225 -0.067772,0.05887 0.4293372,0.882553 0.8842242,1.465101 1.2958668,1.659544 3.1573034,2.813581 5.2986294,3.284996 0.795751,0.175185 2.65348,0.190994 3.456724,0.02942 1.177988,-0.23696 2.354563,-0.725604 3.399239,-1.411741 1.024282,-0.672742 2.37787,-2.189959 2.92089,-3.273983 0.276042,-0.551061 0.481741,-0.685701 0.415592,-0.272027 -0.02137,0.133643 -0.122515,0.504158 -0.224767,0.823365 -1.590428,4.964988 -6.467935,8.164161 -11.625288,7.625064 z M 14.28,0.47645898 C 14.28,0.44540654 14.253,0.42 14.22,0.42 c -0.033,0 -0.06,0.0420935 -0.06,0.093541 0,0.0514476 0.027,0.0768541 0.06,0.056459 0.033,-0.0203951 0.06,-0.0624886 0.06,-0.093541 z"
       id="path1760" />
    <path
       style="fill:#d0cfcf;stroke-width:1"
       d="M 10.71,23.754245 C 7.198575,23.326998 4.1593514,21.309045 2.4012612,18.237494 L 2.030327,17.589437 1.508735,17.839718 c -0.4800661,0.230356 -0.5198249,0.262853 -0.4993963,0.408177 0.027962,0.198917 -0.0842342,0.273423 -0.22284394,0.147983 -0.13261536,-0.120015 -0.18037416,-0.120015 -0.31298953,0 C 0.35075859,18.506962 0.24,18.462164 0.24,18.301433 c 0,-0.178044 0.2279272,-0.660567 0.33064879,-0.699984 0.0516014,-0.0198 0.14876951,0.01373 0.21592931,0.0745 0.11955936,0.1082 0.13297854,0.104662 0.6427653,-0.169441 C 1.7157045,17.352541 2.79375,16.806372 3.825,16.292804 4.85625,15.779237 5.6999074,15.33901 5.6997943,15.314522 5.6996803,15.290035 5.6189336,15.072073 5.5203554,14.830162 5.0836775,13.758555 4.8921556,12.709099 4.8943632,11.4 4.8962455,10.28383 5.0178579,9.5093088 5.3471057,8.5165878 6.5313,4.946101 9.8220528,2.3411238 13.44,2.1102095 L 14.07,2.07 14.087263,1.5499904 c 0.0162,-0.4880872 0.0079,-0.5293566 -0.135,-0.67227266 -0.192612,-0.19261224 -0.194479,-0.42095652 -0.005,-0.61044501 0.294861,-0.29486106 0.602595,-0.16448965 0.663901,0.28126193 0.03789,0.27550324 0.02811,0.32149336 -0.08687,0.40821778 C 14.406617,1.0455231 14.39635,1.1010613 14.412365,1.5622439 L 14.43,2.07 14.97,2.113421 c 1.243448,0.099985 2.554727,0.46969 3.78,1.065742 1.072891,0.5219237 1.760882,1.0031755 2.525349,1.7664905 0.540767,0.5399519 0.707386,0.7497947 0.889849,1.1206956 0.173686,0.3530586 0.225167,0.5306226 0.227449,0.7845 0.0034,0.3822594 -0.140655,0.7317852 -0.362215,0.8786442 -0.0834,0.055279 -1.786518,0.901977 -3.784713,1.8815526 -1.998195,0.9795751 -3.641583,1.8065461 -3.651972,1.8377131 -0.01039,0.03117 1.251268,1.063027 2.803682,2.293022 2.747385,2.176783 3.056817,2.458219 2.702754,2.458219 -0.06709,0 -1.361989,-0.983507 -2.942627,-2.235 -1.552545,-1.22925 -2.862225,-2.243749 -2.910401,-2.254441 -0.04817,-0.01069 -1.881543,0.852762 -4.07415,1.918789 l -3.9865604,1.93823 0.221778,0.410982 c 0.5148336,0.954052 1.564239,2.114613 2.5618518,2.833211 0.6278364,0.452241 1.7735866,1.039023 2.4560466,1.257835 1.031466,0.33071 1.596587,0.413451 2.823879,0.413451 0.955082,0 1.242191,-0.02188 1.77,-0.134878 2.676406,-0.572999 4.79524,-2.123064 6.168632,-4.512754 0.301142,-0.523985 0.467124,-0.681055 0.397648,-0.376297 -0.103704,0.454897 -0.532807,1.646515 -0.770343,2.139242 -1.55009,3.215383 -4.510619,5.433775 -8.105937,6.073963 -0.653296,0.116327 -2.3389,0.162351 -3,0.08191 z M 14.279081,0.465 C 14.279587,0.44025 14.253,0.42 14.22,0.42 c -0.033,0 -0.05959,0.06075 -0.05908,0.135 7.44e-4,0.10916628 0.01205,0.11777754 0.05908,0.045 0.03199,-0.0495 0.05858,-0.11025 0.05908,-0.135 z m 6.052842,16.394068 c -0.07033,-0.04108 -0.09808,-0.143299 -0.09808,-0.361328 0,-0.249084 0.0244,-0.320034 0.134979,-0.392487 0.172544,-0.113056 0.451175,-0.02304 0.451175,0.145762 0,0.06269 0.01599,0.19394 0.03554,0.291664 0.05946,0.297321 -0.243169,0.480184 -0.523613,0.316389 z"
       id="path1758" />
    <path
       style="fill:#a0a0fd;stroke-width:1"
       d="M 10.71,23.754245 C 7.1962548,23.326715 4.1595264,21.309351 2.3985605,18.232776 2.1930613,17.873749 2.0006433,17.58 1.970965,17.58 1.941287,17.58 1.7275603,17.6754 1.4960176,17.792005 1.1033125,17.989769 0.96,18.012527 0.96,17.877128 c 0,-0.03068 0.216,-0.164391 0.48,-0.297128 0.264,-0.132737 0.48,-0.270152 0.48,-0.305369 0,-0.03522 0.8609679,-0.487164 1.913262,-1.00433 L 5.746524,15.33 5.5771459,14.909309 C 5.1176424,13.768023 4.9205869,12.722172 4.9202413,11.422859 4.9197761,9.6741696 5.3487738,8.1133182 6.2291724,6.6604848 7.8479136,3.9892398 10.517095,2.3329312 13.56,2.1114821 L 14.13,2.07 14.147087,1.5274196 c 0.01618,-0.5138547 0.009,-0.55014464 -0.135,-0.6854588 -0.334659,-0.31439559 -0.01962,-0.79155555 0.413006,-0.62554147 0.18004,0.0690882 0.10796,0.20505675 -0.100093,0.18880902 C 14.146091,0.39125659 14.13,0.40444031 14.13,0.565 c 0,0.20812526 0.120511,0.27424562 0.168108,0.0922351 0.04347,-0.16623864 0.245142,-0.13320154 0.270533,0.0443182 0.01198,0.0837545 -0.02633,0.1543959 -0.107208,0.19767972 C 14.345569,0.9612417 14.33695,1.0102054 14.352792,1.5163749 l 0.01721,0.5497895 0.69,0.075536 c 0.856057,0.093715 1.402353,0.2104491 2.25,0.4807887 2.301785,0.7341071 4.48881,2.3934483 4.984105,3.7815451 0.166888,0.4677156 0.07492,0.9885768 -0.221372,1.253673 C 21.99423,7.727946 20.283,8.5894266 18.27,9.5721084 c -2.013,0.9826826 -3.692699,1.8162146 -3.732664,1.8522936 -0.05465,0.04933 0.633072,0.623486 2.773614,2.315598 1.565453,1.2375 2.846902,2.28375 2.847664,2.325 7.62e-4,0.04125 -0.03607,0.075 -0.08185,0.075 -0.04578,0 -1.362033,-1.012318 -2.925,-2.249594 -1.562969,-1.237277 -2.88089,-2.249777 -2.928717,-2.25 -0.06953,-3e-4 -7.9574044,3.801602 -8.0342938,3.8725 -0.047314,0.04363 0.4645764,0.907664 0.8097864,1.366865 0.8339622,1.109343 1.971249,2.052211 3.2314644,2.679049 0.801592,0.398715 1.37917,0.600156 2.276121,0.793839 0.882094,0.190474 2.613582,0.188267 3.513879,-0.0045 2.676406,-0.572999 4.79524,-2.123064 6.168632,-4.512754 0.301142,-0.523985 0.467124,-0.681055 0.397648,-0.376297 -0.103704,0.454897 -0.532807,1.646515 -0.770343,2.139242 -1.55009,3.215383 -4.510619,5.433776 -8.105937,6.073963 -0.653296,0.116327 -2.3389,0.162351 -3,0.08191 z M 0.3,18.274975 C 0.3,18.138151 0.53032124,17.64 0.59358204,17.64 c 0.1064451,0 0.24253236,0.183109 0.31442562,0.423067 0.0850734,0.28395 0.0439067,0.344994 -0.15931044,0.236236 -0.11610138,-0.06214 -0.1675261,-0.06447 -0.22190959,-0.01009 C 0.42963335,18.386366 0.3,18.378228 0.3,18.274975 Z M 20.352,16.788 C 20.243344,16.679344 20.26502,16.62 20.41335,16.62 H 20.5467 L 20.41335,16.5266 C 20.247566,16.410478 20.241161,16.225008 20.4,16.14 c 0.152528,-0.08163 0.37256,0.02399 0.351631,0.168786 -0.008,0.05567 0.0063,0.163259 0.03183,0.239093 C 20.867399,16.797013 20.54207,16.97807 20.352,16.788 Z"
       id="path1756" />
    <path
       style="fill:#fca0a1;stroke-width:1"
       d="M 10.71,23.754245 C 7.1962548,23.326715 4.1595264,21.309351 2.3985605,18.232776 2.1930613,17.873749 2.0006433,17.58 1.970965,17.58 1.941287,17.58 1.7275603,17.6754 1.4960176,17.792005 1.1033125,17.989769 0.96,18.012527 0.96,17.877128 c 0,-0.03068 0.212564,-0.162664 0.4723645,-0.293289 0.2598004,-0.130625 0.4862896,-0.273789 0.5033094,-0.318142 0.01702,-0.04435 0.8861557,-0.498029 1.931413,-1.008169 C 5.5332248,15.444365 5.7638891,15.315204 5.7378241,15.21 5.7214721,15.144 5.5998543,14.7795 5.4675623,14.4 5.106807,13.365118 5.033481,12.946871 4.9974886,11.71873 4.9623763,10.520619 5.0378119,9.8550696 5.3185102,8.8864386 6.3985248,5.159533 9.7092288,2.4417494 13.485388,2.1821822 c 0.321537,-0.022102 0.604449,-0.069885 0.628693,-0.1061838 0.02424,-0.036299 0.04449,-0.2975419 0.045,-0.5805396 C 14.159924,1.0235887 14.14756,0.96923136 14.01,0.84 13.677164,0.52731671 13.994186,0.0510648 14.425093,0.21641933 14.605133,0.28550749 14.533053,0.42147608 14.325,0.40522835 14.146091,0.39125659 14.13,0.40444031 14.13,0.565 c 0,0.20812526 0.120511,0.27424562 0.168108,0.0922351 0.04347,-0.16623864 0.245142,-0.13320154 0.270533,0.0443182 0.0119,0.0831657 -0.0261,0.1542726 -0.105,0.19649808 -0.110456,0.0591142 -0.123543,0.12193162 -0.122722,0.58905962 4.8e-4,0.287589 0.02076,0.551388 0.045,0.5862203 0.02424,0.034832 0.35978,0.097213 0.745635,0.1386241 1.305202,0.1400784 2.421852,0.4721313 3.678446,1.0938426 1.735358,0.8585839 3.064913,2.0703191 3.432179,3.1280332 0.118406,0.3410046 0.07697,0.8145834 -0.09205,1.0519434 -0.136236,0.191325 -0.499493,0.3770574 -5.665108,2.8965544 -1.114646,0.543661 -2.018245,1.019184 -2.01,1.05777 0.0082,0.03855 1.283978,1.074326 2.834978,2.301715 1.551,1.22739 2.82873,2.269095 2.839399,2.314902 0.01067,0.04581 -0.02004,0.08328 -0.06824,0.08328 -0.0482,0 -1.366432,-1.012318 -2.929399,-2.249594 -1.562969,-1.237277 -2.88089,-2.249777 -2.928717,-2.25 -0.06953,-3e-4 -7.9574044,3.801602 -8.0342938,3.8725 -0.047314,0.04363 0.4645764,0.907664 0.8097864,1.366865 0.8339622,1.109343 1.971249,2.052211 3.2314644,2.679049 0.801592,0.398715 1.37917,0.600156 2.276121,0.793839 0.882094,0.190474 2.613582,0.188267 3.513879,-0.0045 2.676406,-0.572999 4.79524,-2.123064 6.168632,-4.512754 0.301142,-0.523985 0.467124,-0.681055 0.397648,-0.376297 -0.103704,0.454897 -0.532807,1.646515 -0.770343,2.139242 -1.55009,3.215383 -4.510619,5.433776 -8.105937,6.073963 -0.653296,0.116327 -2.3389,0.162351 -3,0.08191 z M 0.3,18.274975 C 0.3,18.138151 0.53032124,17.64 0.59358204,17.64 c 0.1064451,0 0.24253236,0.183109 0.31442562,0.423067 0.0850734,0.28395 0.0439067,0.344994 -0.15931044,0.236236 -0.11610138,-0.06214 -0.1675261,-0.06447 -0.22190959,-0.01009 C 0.42963335,18.386366 0.3,18.378228 0.3,18.274975 Z M 20.352,16.788 C 20.243344,16.679344 20.26502,16.62 20.41335,16.62 H 20.5467 L 20.41335,16.5266 C 20.247566,16.410478 20.241161,16.225008 20.4,16.14 c 0.152528,-0.08163 0.37256,0.02399 0.351631,0.168786 -0.008,0.05567 0.0063,0.163259 0.03183,0.239093 C 20.867399,16.797013 20.54207,16.97807 20.352,16.788 Z"
       id="path1754" />
    <path
       style="fill:#9f9d9e;stroke-width:1"
       d="M 10.62,23.698571 C 7.8830532,23.31885 5.4900581,22.047824 3.7335338,20.040864 3.2448221,19.482475 2.5543789,18.483541 2.2760537,17.932183 2.1772721,17.736497 2.057998,17.58 2.0076385,17.58 1.9577895,17.58 1.7275603,17.6754 1.4960176,17.792005 1.1033887,17.98973 0.96,18.012524 0.96,17.877213 c 0,-0.03064 0.19575,-0.153542 0.435,-0.273122 0.23925,-0.119579 0.4848274,-0.261668 0.5457275,-0.315754 0.0609,-0.05408 0.9249002,-0.494845 1.92,-0.979465 0.9950999,-0.484621 1.8326941,-0.917917 1.8613206,-0.96288 0.033457,-0.05255 -0.023736,-0.284321 -0.16012,-0.648872 C 5.1285229,13.538638 4.98,12.700723 4.98,11.41408 c 0,-0.965916 0.097284,-1.6911712 0.3391384,-2.528287 1.07558,-3.722841 4.3905512,-6.4440752 8.1662496,-6.7036108 0.321537,-0.022102 0.604449,-0.069885 0.628693,-0.1061838 0.02424,-0.036299 0.04449,-0.2975419 0.045,-0.5805396 C 14.159924,1.0235887 14.14756,0.96923136 14.01,0.84 13.677164,0.52731671 13.994186,0.0510648 14.425093,0.21641933 14.605133,0.28550749 14.533053,0.42147608 14.325,0.40522835 14.146091,0.39125659 14.13,0.40444031 14.13,0.565 c 0,0.20812526 0.120511,0.27424562 0.168108,0.0922351 0.04347,-0.16623864 0.245142,-0.13320154 0.270533,0.0443182 0.0119,0.0831657 -0.0261,0.1542726 -0.105,0.19649808 -0.110456,0.0591142 -0.123543,0.12193162 -0.122722,0.58905962 4.8e-4,0.287589 0.02076,0.551388 0.045,0.5862203 0.02424,0.034832 0.35978,0.097213 0.745635,0.1386241 1.305202,0.1400784 2.421852,0.4721313 3.678446,1.0938426 1.735358,0.8585839 3.064913,2.0703191 3.432179,3.1280332 0.118406,0.3410046 0.07697,0.8145834 -0.09205,1.0519434 -0.136236,0.191325 -0.499493,0.3770574 -5.665108,2.8965544 -1.114646,0.543661 -2.018245,1.019184 -2.01,1.05777 0.0082,0.03855 1.283978,1.074326 2.834978,2.301715 1.551,1.22739 2.82873,2.269095 2.839399,2.314902 0.01067,0.04581 -0.02004,0.08328 -0.06824,0.08328 -0.0482,0 -1.366432,-1.012318 -2.929399,-2.249594 -1.562969,-1.237277 -2.88089,-2.249777 -2.928717,-2.25 -0.07019,-3e-4 -7.9582006,3.802152 -8.035249,3.873456 -0.1093092,0.101158 0.6457134,1.298203 1.2395976,1.965312 1.2571278,1.412125 2.8794174,2.388918 4.6995654,2.829644 2.406962,0.582816 4.987096,0.143539 7.056336,-1.201365 1.279354,-0.831517 2.221384,-1.831662 3.021079,-3.207453 0.337289,-0.580271 0.36744,-0.440149 0.08636,0.401353 -1.240011,3.712357 -4.32137,6.434421 -8.210989,7.253565 -0.602964,0.126982 -0.933006,0.15751 -1.899742,0.175722 -0.6435,0.01212 -1.3455,-0.0023 -1.56,-0.03207 z M 0.3,18.274975 C 0.3,18.138151 0.53032124,17.64 0.59358204,17.64 c 0.1064451,0 0.24253236,0.183109 0.31442562,0.423067 0.0850734,0.28395 0.0439067,0.344994 -0.15931044,0.236236 -0.11610138,-0.06214 -0.1675261,-0.06447 -0.22190959,-0.01009 C 0.42963335,18.386366 0.3,18.378228 0.3,18.274975 Z M 20.352,16.788 C 20.243344,16.679344 20.26502,16.62 20.41335,16.62 H 20.5467 L 20.41335,16.5266 C 20.247566,16.410478 20.241161,16.225008 20.4,16.14 c 0.152528,-0.08163 0.37256,0.02399 0.351631,0.168786 -0.008,0.05567 0.0063,0.163259 0.03183,0.239093 C 20.867399,16.797013 20.54207,16.97807 20.352,16.788 Z"
       id="path1752" />
    <path
       style="fill:#c27c86;stroke-width:1"
       d="M 10.62,23.698571 C 7.1162346,23.212462 4.1499919,21.225914 2.4486582,18.22607 1.9837372,17.406308 2.0670319,17.453244 1.5386525,17.713282 1.2891208,17.836087 1.0714813,17.914757 1.0550092,17.888105 1.038537,17.861452 1.1926035,17.760976 1.3973792,17.664823 1.6021549,17.56867 1.8372664,17.419186 1.9198493,17.332636 2.0024322,17.246086 2.8665,16.78937 3.84,16.31771 4.8135,15.846052 5.6541013,15.430529 5.7080029,15.394326 5.7968519,15.334652 5.7895838,15.287121 5.6301881,14.885446 5.1675778,13.719673 4.9805878,12.724265 4.9802413,11.425573 4.9799833,10.447426 5.0761182,9.7269444 5.3191384,8.885793 6.3989268,5.1483859 9.7330572,2.4232798 13.522701,2.1807226 13.856716,2.159344 14.149837,2.1121855 14.174081,2.0759261 14.198326,2.0396668 14.223681,1.794 14.230426,1.53 c 0.01079,-0.4223101 0.01449,-0.4367326 0.03077,-0.12 0.01018,0.198 0.0333,0.44775 0.05137,0.555 0.03095,0.1836404 0.04756,0.195064 0.285149,0.1960992 0.343942,0.0015 1.402497,0.1555352 1.858699,0.2704702 2.504138,0.6308902 4.819676,2.1292313 5.624722,3.6396518 0.342967,0.6434724 0.295529,1.3288974 -0.110614,1.5982722 -0.08335,0.055279 -1.813314,0.9150186 -3.844374,1.9105338 -2.03106,0.9955148 -3.701263,1.8353068 -3.711562,1.8662048 -0.0103,0.0309 1.250597,1.060731 2.801993,2.28852 1.551395,1.227788 2.83642,2.257746 2.855609,2.288795 0.01919,0.03105 0.01108,0.05645 -0.01802,0.05645 -0.0291,0 -1.332557,-1.0125 -2.896567,-2.25 -1.56401,-1.2375 -2.880225,-2.25 -2.924921,-2.25 -0.0447,0 -1.874412,0.87075 -4.066034,1.935 -3.070265,1.490918 -3.9849824,1.959781 -3.9857072,2.04298 -0.00128,0.147515 0.1354614,0.400848 0.540882,1.00202 1.265586,1.876658 3.192402,3.213033 5.4051342,3.748818 2.406962,0.582816 4.987096,0.143539 7.056336,-1.201365 1.279354,-0.831517 2.221384,-1.831662 3.021079,-3.207453 0.337289,-0.580271 0.36744,-0.440149 0.08636,0.401353 -1.240011,3.712357 -4.32137,6.434421 -8.210989,7.253565 -0.602964,0.126982 -0.933006,0.15751 -1.899742,0.175722 -0.6435,0.01212 -1.3455,-0.0023 -1.56,-0.03207 z M 0.36,18.257515 C 0.36,18.15373 0.56096434,17.7 0.60693204,17.7 0.6627216,17.7 0.9,18.136978 0.9,18.239721 c 0,0.04573 -0.0346348,0.04596 -0.11901222,8.1e-4 -0.0654568,-0.03503 -0.11270676,-0.110231 -0.105,-0.167111 C 0.68369448,18.016538 0.663,17.97 0.63,17.97 c -0.033,0 -0.0545727,0.04158 -0.0479394,0.0924 0.006633,0.05082 -0.0406167,0.1253 -0.105,0.165508 C 0.41267728,18.26812 0.36,18.281441 0.36,18.257515 Z m 20.28,-1.578261 c 0,-0.04661 -0.07185,-0.142041 -0.159679,-0.212069 C 20.331171,16.348256 20.323825,16.2 20.467082,16.2 c 0.033,0 0.04146,0.02999 0.01881,0.06665 -0.02269,0.03671 0.03635,0.129019 0.131459,0.205521 0.138682,0.111553 0.157893,0.153922 0.09765,0.215354 -0.0607,0.06189 -0.075,0.06032 -0.075,-0.0083 z M 13.982111,0.72394446 C 13.89962,0.56980924 13.903429,0.52429732 14.01035,0.38646778 14.096122,0.2759014 14.09803,0.27760047 14.048009,0.42 c -0.02899,0.0825369 -0.03002,0.21071676 -0.0023,0.285 0.06178,0.1654443 0.02125,0.17751312 -0.06362,0.0189445 z M 14.4,0.72 c 0,-0.066 0.027,-0.12 0.06,-0.12 0.033,0 0.06,0.054 0.06,0.12 0,0.066 -0.027,0.12 -0.06,0.12 -0.033,0 -0.06,-0.054 -0.06,-0.12 z"
       id="path1750" />
    <path
       style="fill:#5e5efc;stroke-width:1"
       d="M 10.62,23.698571 C 7.882623,23.31879 5.4912365,22.048496 3.7325764,20.04 3.2407897,19.47835 2.5038337,18.402547 2.2426381,17.865 2.1504382,17.67525 2.0394524,17.52 1.9960031,17.52 1.9525541,17.52 1.7300536,17.61415 1.5015582,17.729215 1.2730628,17.844284 1.073366,17.917807 1.0577875,17.892601 1.0422089,17.867394 1.2568337,17.730344 1.5347314,17.588045 1.8126292,17.445746 2.0404379,17.297974 2.0409731,17.25966 2.0419179,17.19202 5.6168368,15.42 5.752352,15.42 5.843604,15.42 5.844891,15.4258 5.6373554,14.903343 5.1676297,13.720877 4.9805895,12.730969 4.9802413,11.425573 4.9799833,10.447426 5.0761182,9.7269444 5.3191384,8.885793 6.3989268,5.1483859 9.7330572,2.4232798 13.522701,2.1807226 13.856716,2.159344 14.149837,2.1121855 14.174081,2.0759261 14.198326,2.0396668 14.223681,1.794 14.230426,1.53 c 0.01079,-0.4223101 0.01449,-0.4367326 0.03077,-0.12 0.01018,0.198 0.0333,0.44775 0.05137,0.555 0.03095,0.1836404 0.04756,0.195064 0.285149,0.1960992 0.343942,0.0015 1.402497,0.1555352 1.858699,0.2704702 2.504138,0.6308902 4.819676,2.1292313 5.624722,3.6396518 0.342967,0.6434724 0.295529,1.3288974 -0.110614,1.5982722 -0.08335,0.055279 -1.813314,0.9150186 -3.844374,1.9105338 -2.03106,0.9955148 -3.701263,1.8353068 -3.711562,1.8662048 -0.0103,0.0309 1.250597,1.060731 2.801993,2.28852 1.551395,1.227788 2.83642,2.257746 2.855609,2.288795 0.01919,0.03105 0.01108,0.05645 -0.01802,0.05645 -0.0291,0 -1.332557,-1.0125 -2.896567,-2.25 -1.56401,-1.2375 -2.880393,-2.25 -2.925295,-2.25 -0.08162,0 -7.977944,3.815783 -8.0721692,3.900757 -0.065931,0.05946 0.138639,0.452686 0.5614572,1.079243 1.2669738,1.877477 3.1927218,3.213055 5.405361,3.748818 2.406962,0.582816 4.987096,0.143539 7.056336,-1.201365 1.279354,-0.831517 2.221384,-1.831662 3.021079,-3.207453 0.337289,-0.580271 0.36744,-0.440149 0.08636,0.401353 -1.240011,3.712357 -4.32137,6.434421 -8.210989,7.253565 -0.602964,0.126982 -0.933006,0.15751 -1.899742,0.175722 -0.6435,0.01212 -1.3455,-0.0023 -1.56,-0.03207 z M 0.36,18.257515 C 0.36,18.15373 0.56096434,17.7 0.60693204,17.7 0.6627216,17.7 0.9,18.136978 0.9,18.239721 c 0,0.04573 -0.0346348,0.04596 -0.11901222,8.1e-4 -0.0654568,-0.03503 -0.11270676,-0.110231 -0.105,-0.167111 C 0.68369448,18.016538 0.663,17.97 0.63,17.97 c -0.033,0 -0.0545727,0.04158 -0.0479394,0.0924 0.006633,0.05082 -0.0406167,0.1253 -0.105,0.165508 C 0.41267728,18.26812 0.36,18.281441 0.36,18.257515 Z m 20.28,-1.578261 c 0,-0.04661 -0.07185,-0.142041 -0.159679,-0.212069 C 20.331171,16.348256 20.323825,16.2 20.467082,16.2 c 0.033,0 0.04146,0.02999 0.01881,0.06665 -0.02269,0.03671 0.03635,0.129019 0.131459,0.205521 0.138682,0.111553 0.157893,0.153922 0.09765,0.215354 -0.0607,0.06189 -0.075,0.06032 -0.075,-0.0083 z M 13.982111,0.72394446 C 13.89962,0.56980924 13.903429,0.52429732 14.01035,0.38646778 14.096122,0.2759014 14.09803,0.27760047 14.048009,0.42 c -0.02899,0.0825369 -0.03002,0.21071676 -0.0023,0.285 0.06178,0.1654443 0.02125,0.17751312 -0.06362,0.0189445 z M 14.4,0.72 c 0,-0.066 0.027,-0.12 0.06,-0.12 0.033,0 0.06,0.054 0.06,0.12 0,0.066 -0.027,0.12 -0.06,0.12 -0.033,0 -0.06,-0.054 -0.06,-0.12 z"
       id="path1748" />
    <path
       style="fill:#f25d64;stroke-width:1"
       d="M 10.62,23.698571 C 7.882623,23.31879 5.4912365,22.048496 3.7325764,20.04 3.2407897,19.47835 2.5038337,18.402547 2.2426381,17.865 2.1504382,17.67525 2.0394524,17.52 1.9960031,17.52 c -0.043449,0 -0.2659495,0.09415 -0.4944449,0.209215 -0.2284954,0.115069 -0.4281922,0.188592 -0.4437707,0.163386 -0.015579,-0.02521 0.1990462,-0.162257 0.4769439,-0.304556 0.2778978,-0.142299 0.5058839,-0.290071 0.5066359,-0.328385 0.00116,-0.059 2.6692727,-1.396387 3.5536327,-1.781248 0.15675,-0.06822 0.285,-0.131017 0.285,-0.13956 0,-0.0085 -0.094461,-0.249793 -0.2099136,-0.53611 C 5.186296,13.602962 5.0069788,12.514003 5.0580071,11.085698 5.1103937,9.6193776 5.3457638,8.6819364 5.9959559,7.35 7.4296698,4.4129974 10.333066,2.4527555 13.562981,2.2410866 14.242337,2.1965659 14.212224,2.2301115 14.228221,1.5 l 0.0099,-0.45 0.04106,0.5550959 c 0.02258,0.3053028 0.05226,0.5643876 0.06596,0.5757441 0.0137,0.011356 0.335404,0.053207 0.714904,0.093002 1.773877,0.1860104 3.391478,0.7647654 4.873855,1.743797 1.84016,1.2153289 2.76678,2.7542579 2.097928,3.4842365 -0.110754,0.1208754 -1.335127,0.7505538 -3.881726,1.9963182 -2.242263,1.0968873 -3.726965,1.8562133 -3.737621,1.9115453 -0.01142,0.0593 0.980969,0.882133 2.803594,2.324575 1.551699,1.228029 2.836973,2.258184 2.856162,2.289233 0.01919,0.03105 0.01108,0.05645 -0.01802,0.05645 -0.0291,0 -1.332557,-1.0125 -2.896567,-2.25 -1.56401,-1.2375 -2.880393,-2.25 -2.925295,-2.25 -0.08162,0 -7.977944,3.815783 -8.0721692,3.900757 -0.065931,0.05946 0.138639,0.452686 0.5614572,1.079243 1.2669738,1.877477 3.1927218,3.213055 5.405361,3.748818 2.406962,0.582816 4.987096,0.143539 7.056336,-1.201365 1.279354,-0.831517 2.221384,-1.831662 3.021079,-3.207453 0.337289,-0.580271 0.36744,-0.440149 0.08636,0.401353 -1.240011,3.712357 -4.32137,6.434421 -8.210989,7.253565 -0.602964,0.126982 -0.933006,0.15751 -1.899742,0.175722 -0.6435,0.01212 -1.3455,-0.0023 -1.56,-0.03207 z M 0.36,18.257515 C 0.36,18.15373 0.56096434,17.7 0.60693204,17.7 0.6627216,17.7 0.9,18.136978 0.9,18.239721 c 0,0.04573 -0.0346348,0.04596 -0.11901222,8.1e-4 -0.0654568,-0.03503 -0.11270676,-0.110231 -0.105,-0.167111 C 0.68369448,18.016538 0.663,17.97 0.63,17.97 c -0.033,0 -0.0545727,0.04158 -0.0479394,0.0924 0.006633,0.05082 -0.0406167,0.1253 -0.105,0.165508 C 0.41267728,18.26812 0.36,18.281441 0.36,18.257515 Z m 20.28,-1.578261 c 0,-0.04661 -0.07185,-0.142041 -0.159679,-0.212069 C 20.331171,16.348256 20.323825,16.2 20.467082,16.2 c 0.033,0 0.04146,0.02999 0.01881,0.06665 -0.02269,0.03671 0.03635,0.129019 0.131459,0.205521 0.138682,0.111553 0.157893,0.153922 0.09765,0.215354 -0.0607,0.06189 -0.075,0.06032 -0.075,-0.0083 z M 13.982111,0.72394446 C 13.89962,0.56980924 13.903429,0.52429732 14.01035,0.38646778 14.096122,0.2759014 14.09803,0.27760047 14.048009,0.42 c -0.02899,0.0825369 -0.03002,0.21071676 -0.0023,0.285 0.06178,0.1654443 0.02125,0.17751312 -0.06362,0.0189445 z M 14.4,0.72 c 0,-0.066 0.027,-0.12 0.06,-0.12 0.033,0 0.06,0.054 0.06,0.12 0,0.066 -0.027,0.12 -0.06,0.12 -0.033,0 -0.06,-0.054 -0.06,-0.12 z"
       id="path1746" />
    <path
       style="fill:#d7254a;stroke-width:1"
       d="M 10.384406,23.604782 C 7.7822532,23.226031 5.3388392,21.876952 3.6839669,19.905275 3.1688563,19.291553 2.5632303,18.396415 2.3035737,17.865 2.1904443,17.633469 2.0991527,17.52 2.0260031,17.52 c -0.059949,0 -0.2959495,0.09415 -0.5244449,0.209215 -0.2284954,0.115069 -0.4290662,0.187178 -0.4457131,0.160243 -0.016647,-0.02694 0.1585341,-0.14031 0.389291,-0.251943 0.2307569,-0.111633 0.469635,-0.249622 0.5308402,-0.306644 0.061205,-0.05702 0.964649,-0.52168 2.0076529,-1.032575 C 5.0266331,15.787401 5.88,15.359029 5.88,15.346357 5.88,15.333686 5.7855389,15.089059 5.6700864,14.802742 5.186296,13.602962 5.0069788,12.514003 5.0580071,11.085698 5.1103937,9.6193776 5.3457638,8.6819364 5.9959559,7.35 7.4296698,4.4129974 10.333066,2.4527555 13.562981,2.2410866 14.242337,2.1965659 14.212224,2.2301115 14.228221,1.5 l 0.0099,-0.45 0.04106,0.5550959 c 0.02258,0.3053028 0.05226,0.5643876 0.06596,0.5757441 0.0137,0.011356 0.335404,0.053207 0.714904,0.093002 1.773877,0.1860104 3.391478,0.7647654 4.873855,1.743797 1.84016,1.2153289 2.76678,2.7542579 2.097928,3.4842365 -0.110754,0.1208754 -1.335127,0.7505538 -3.881726,1.9963182 -2.242263,1.0968873 -3.726965,1.8562133 -3.737621,1.9115453 -0.01142,0.0593 0.980969,0.882133 2.803594,2.324575 1.551699,1.228029 2.836973,2.258184 2.856162,2.289233 0.01919,0.03105 0.01108,0.05645 -0.01802,0.05645 -0.0291,0 -1.332557,-1.0125 -2.896567,-2.25 -1.56401,-1.2375 -2.885044,-2.248985 -2.935629,-2.247745 -0.05059,0.0012 -1.887474,0.876473 -4.081974,1.944963 -2.9789022,1.450412 -3.9944286,1.971114 -4.0074762,2.054799 -0.023077,0.148009 0.5904474,1.119464 1.1063886,1.751855 0.4940526,0.605562 1.23288,1.265955 1.9617426,1.753484 2.316238,1.549306 5.275854,1.946963 7.927388,1.065131 2.09955,-0.698256 3.952773,-2.203452 5.045036,-4.097601 0.0936,-0.162313 0.179234,-0.267948 0.190302,-0.234744 0.01107,0.0332 -0.06385,0.301004 -0.16649,0.595114 -1.348174,3.863221 -4.702877,6.616779 -8.764696,7.194109 -0.767044,0.109025 -2.282926,0.106746 -3.047789,-0.0046 z M 0.36,18.257515 C 0.36,18.15373 0.56096434,17.7 0.60693204,17.7 0.6627216,17.7 0.9,18.136978 0.9,18.239721 c 0,0.04573 -0.0346348,0.04596 -0.11901222,8.1e-4 -0.0654568,-0.03503 -0.11270676,-0.110231 -0.105,-0.167111 C 0.68369448,18.016538 0.663,17.97 0.63,17.97 c -0.033,0 -0.0545727,0.04158 -0.0479394,0.0924 0.006633,0.05082 -0.0406167,0.1253 -0.105,0.165508 C 0.41267728,18.26812 0.36,18.281441 0.36,18.257515 Z m 20.28,-1.578261 c 0,-0.04661 -0.07185,-0.142041 -0.159679,-0.212069 C 20.331171,16.348256 20.323825,16.2 20.467082,16.2 c 0.033,0 0.04146,0.02999 0.01881,0.06665 -0.02269,0.03671 0.03635,0.129019 0.131459,0.205521 0.138682,0.111553 0.157893,0.153922 0.09765,0.215354 -0.0607,0.06189 -0.075,0.06032 -0.075,-0.0083 z M 13.982111,0.72394446 C 13.89962,0.56980924 13.903429,0.52429732 14.01035,0.38646778 14.096122,0.2759014 14.09803,0.27760047 14.048009,0.42 c -0.02899,0.0825369 -0.03002,0.21071676 -0.0023,0.285 0.06178,0.1654443 0.02125,0.17751312 -0.06362,0.0189445 z M 14.4,0.72 c 0,-0.066 0.027,-0.12 0.06,-0.12 0.033,0 0.06,0.054 0.06,0.12 0,0.066 -0.027,0.12 -0.06,0.12 -0.033,0 -0.06,-0.054 -0.06,-0.12 z"
       id="path1744" />
    <path
       style="fill:#6b6871;stroke-width:1"
       d="M 10.351646,23.548023 C 6.9278694,22.99506 4.0291985,20.946297 2.4029345,17.929922 2.1184583,17.402279 2.1402826,17.406415 1.4581058,17.750831 1.253564,17.854099 1.071481,17.914757 1.0534768,17.885626 1.0245613,17.838839 4.6504832,16.000511 5.4315746,15.665947 5.8937344,15.46799 5.9116679,15.401854 5.667429,14.796152 5.1864157,13.603259 5.0070739,12.51134 5.0580071,11.085698 5.1103937,9.6193776 5.3457638,8.6819364 5.9959559,7.35 7.4296698,4.4129974 10.333066,2.4527555 13.562981,2.2410866 14.242337,2.1965659 14.212224,2.2301115 14.228221,1.5 l 0.0099,-0.45 0.04106,0.5550959 c 0.02258,0.3053028 0.05226,0.5643876 0.06596,0.5757441 0.0137,0.011356 0.335404,0.053207 0.714904,0.093002 1.773877,0.1860104 3.391478,0.7647654 4.873855,1.743797 1.84016,1.2153289 2.76678,2.7542579 2.097928,3.4842365 -0.110754,0.1208754 -1.335127,0.7505538 -3.881726,1.9963182 -2.242263,1.0968873 -3.726965,1.8562133 -3.737621,1.9115453 -0.01142,0.0593 0.980969,0.882133 2.803594,2.324575 1.551699,1.228029 2.836973,2.258184 2.856162,2.289233 0.01919,0.03105 0.01108,0.05645 -0.01802,0.05645 -0.0291,0 -1.332557,-1.0125 -2.896567,-2.25 -1.56401,-1.2375 -2.880393,-2.25 -2.925295,-2.25 -0.106067,0 -7.9950638,3.829597 -8.108984,3.936387 -0.075414,0.07069 -0.072804,0.110639 0.020087,0.307432 0.22881,0.484745 0.8934384,1.40041 1.4213904,1.958265 1.9145238,2.022959 4.6485756,3.080329 7.3871966,2.856934 2.626951,-0.214287 4.96612,-1.468711 6.571357,-3.524018 0.617307,-0.790385 0.652859,-0.627604 0.108109,0.495 -0.752893,1.551538 -2.022575,3.04547 -3.453856,4.063871 -1.147953,0.816804 -2.743642,1.5013 -4.174894,1.790885 -0.84893,0.171763 -2.8242,0.216812 -3.651068,0.08327 z M 0.36,18.257515 C 0.36,18.15373 0.56096434,17.7 0.60693204,17.7 0.6627216,17.7 0.9,18.136978 0.9,18.239721 c 0,0.04573 -0.0346348,0.04596 -0.11901222,8.1e-4 -0.0654568,-0.03503 -0.11270676,-0.110231 -0.105,-0.167111 C 0.68369448,18.016538 0.663,17.97 0.63,17.97 c -0.033,0 -0.0545727,0.04158 -0.0479394,0.0924 0.006633,0.05082 -0.0406167,0.1253 -0.105,0.165508 C 0.41267728,18.26812 0.36,18.281441 0.36,18.257515 Z m 20.28,-1.578261 c 0,-0.04661 -0.07185,-0.142041 -0.159679,-0.212069 C 20.331171,16.348256 20.323825,16.2 20.467082,16.2 c 0.033,0 0.04146,0.02999 0.01881,0.06665 -0.02269,0.03671 0.03635,0.129019 0.131459,0.205521 0.138682,0.111553 0.157893,0.153922 0.09765,0.215354 -0.0607,0.06189 -0.075,0.06032 -0.075,-0.0083 z M 13.982111,0.72394446 C 13.89962,0.56980924 13.903429,0.52429732 14.01035,0.38646778 14.096122,0.2759014 14.09803,0.27760047 14.048009,0.42 c -0.02899,0.0825369 -0.03002,0.21071676 -0.0023,0.285 0.06178,0.1654443 0.02125,0.17751312 -0.06362,0.0189445 z M 14.4,0.72 c 0,-0.066 0.027,-0.12 0.06,-0.12 0.033,0 0.06,0.054 0.06,0.12 0,0.066 -0.027,0.12 -0.06,0.12 -0.033,0 -0.06,-0.054 -0.06,-0.12 z"
       id="path1742" />
    <path
       style="fill:#9f0764;stroke-width:1"
       d="M 10.351646,23.548023 C 9.1060506,23.346851 8.0792742,23.008898 6.96,22.431698 5.9681915,21.920231 5.2396621,21.379091 4.3459162,20.49 3.5281927,19.676536 3.0344788,19.041745 2.5492918,18.18 2.3913624,17.8995 2.2121643,17.596843 2.1510737,17.507429 2.0899832,17.418016 2.04,17.336072 2.04,17.325331 2.04,17.314591 2.8746646,16.901747 3.8948102,16.407902 4.9149559,15.914056 5.77776,15.465031 5.8121528,15.410069 5.8596256,15.334205 5.824772,15.186356 5.667429,14.796152 5.1864157,13.603259 5.0070739,12.51134 5.0580071,11.085698 5.1103937,9.6193776 5.3457638,8.6819364 5.9959559,7.35 7.65165,3.958264 11.356925,1.8570077 14.97,2.2608323 c 1.407001,0.1572571 2.577947,0.4857567 3.727744,1.0457894 2.542508,1.2383814 4.168467,3.2843645 3.334039,4.1953031 -0.11077,0.120927 -1.325211,0.7456836 -3.851492,1.9813584 -2.02934,0.9926078 -3.735965,1.8466028 -3.792501,1.8977668 -0.05654,0.05116 -0.299668,0.180771 -0.540292,0.288013 -0.587286,0.261745 -7.7461814,3.75078 -7.7995676,3.801281 -0.14252,0.134815 0.7636968,1.515907 1.5168708,2.31174 1.9146762,2.02312 4.6487918,3.080442 7.3875278,2.856862 2.627152,-0.21447 4.965799,-1.468652 6.571026,-3.523946 0.617307,-0.790385 0.652859,-0.627604 0.108109,0.495 -0.752893,1.551538 -2.022575,3.04547 -3.453856,4.063871 -1.147953,0.816804 -2.743642,1.5013 -4.174894,1.790885 -0.84893,0.171763 -2.8242,0.216812 -3.651068,0.08327 z"
       id="path1740" />
    <path
       style="fill:#0100fc;stroke-width:1"
       d="M 10.315708,23.491681 C 9.1262124,23.29819 8.1041844,22.960506 7.02,22.402759 5.0727099,21.400995 3.4831493,19.837006 2.4537834,17.91 2.3127602,17.646 2.1712907,17.412325 2.1394067,17.390722 2.1075228,17.36912 2.7673628,17.018368 3.605718,16.611275 5.7902383,15.550503 5.8420323,15.522721 5.8566518,15.403895 5.8638317,15.345538 5.7775612,15.069275 5.6649395,14.789978 5.186527,13.603535 5.0071636,12.50883 5.0580071,11.085698 5.1103937,9.6193776 5.3457638,8.6819364 5.9959559,7.35 7.65165,3.958264 11.356925,1.8570077 14.97,2.2608323 c 1.407001,0.1572571 2.577947,0.4857567 3.727744,1.0457894 2.542508,1.2383814 4.168467,3.2843645 3.334039,4.1953031 C 21.920999,7.6228674 20.706799,8.247432 18.18,9.483219 c -2.0295,0.992572 -3.74574,1.8569 -3.813867,1.920728 -0.06813,0.06383 -0.147635,0.116053 -0.176684,0.116053 -0.120998,0 -8.145487,3.936792 -8.1746362,4.010453 -0.086447,0.218456 0.771024,1.505046 1.5302274,2.296028 1.4684814,1.529949 3.2484658,2.464406 5.3205678,2.793195 0.818689,0.129904 2.53486,0.08253 3.316051,-0.09154 1.176398,-0.262132 2.227848,-0.709112 3.21682,-1.367497 0.655944,-0.43668 1.618422,-1.324662 2.131629,-1.966639 0.182907,-0.2288 0.343617,-0.382822 0.357135,-0.34227 0.01352,0.04055 -0.124201,0.376252 -0.306042,0.746001 -1.463719,2.976278 -4.190826,5.083171 -7.512831,5.80422 -0.777525,0.168764 -2.94778,0.220657 -3.752662,0.08973 z"
       id="path1738" />
    <path
       style="fill:#5d009e;stroke-width:1"
       d="M 10.315708,23.491681 C 9.1262124,23.29819 8.1041844,22.960506 7.02,22.402759 5.0727099,21.400995 3.4831493,19.837006 2.4537834,17.91 2.3127602,17.646 2.1712907,17.412325 2.1394067,17.390722 2.1075228,17.36912 2.7673628,17.018368 3.605718,16.611275 5.7325966,15.578493 5.8522873,15.516516 5.8319297,15.458521 5.821991,15.430208 6.2269908,15.21026 6.7319298,14.969749 7.2368682,14.729237 9.0945,13.828644 10.86,12.968431 L 14.07,11.404405 14.1,6.7972026 C 14.129674,2.24 14.131303,2.19 14.25,2.19 c 0.11896,0 0.12,0.04 0.12,4.6134606 0,4.0399174 -0.01119,4.6193174 -0.09,4.6605694 -0.0495,0.02591 -1.922254,0.933353 -4.161675,2.01654 -2.2394214,1.083186 -4.0860018,2.005634 -4.1035122,2.049883 -0.086447,0.218456 0.771024,1.505046 1.5302274,2.296028 1.4684814,1.529949 3.2484658,2.464406 5.3205678,2.793195 0.818689,0.129904 2.53486,0.08253 3.316051,-0.09154 1.176398,-0.262132 2.227848,-0.709112 3.21682,-1.367497 0.655944,-0.43668 1.618422,-1.324662 2.131629,-1.966639 0.182907,-0.2288 0.343617,-0.382822 0.357135,-0.34227 0.01352,0.04055 -0.124201,0.376252 -0.306042,0.746001 -1.463719,2.976278 -4.190826,5.083171 -7.512831,5.80422 -0.777525,0.168764 -2.94778,0.220657 -3.752662,0.08973 z m 3.485099,-0.111957 c 2.918392,-0.544981 5.423692,-2.197567 7.064087,-4.659724 0.301833,-0.453039 0.821368,-1.433738 0.780948,-1.474157 -0.01196,-0.01196 -0.244081,0.219352 -0.515831,0.514021 -1.105483,1.198717 -2.404329,2.042607 -3.91723,2.545115 -1.97974,0.657569 -3.94468,0.65793 -5.922304,0.0011 C 9.2012988,19.612178 7.3593282,18.11978 6.212466,16.191771 6.0581196,15.932297 5.9026928,15.72 5.8670731,15.72 c -0.07809,0 -3.4126133,1.609619 -3.494661,1.68692 -0.073707,0.06944 0.2395781,0.710324 0.6414412,1.312185 1.7189383,2.574417 4.3444975,4.247966 7.3924407,4.711992 0.720545,0.109698 2.691727,0.07987 3.394513,-0.05137 z"
       id="path1736" />
    <path
       style="fill:#1b189c;stroke-width:1"
       d="m 4.6723467,20.715 c -0.074632,-0.09516 -0.07251,-0.09729 0.022653,-0.02265 0.05775,0.04529 0.105,0.09254 0.105,0.105 0,0.04938 -0.049271,0.0176 -0.127653,-0.08235 z m 9.3542393,0.06099 c 0.141122,-0.01267 0.357122,-0.0125 0.48,4.2e-4 0.122877,0.01289 0.0074,0.02326 -0.256586,0.02304 -0.264,-2.4e-4 -0.364537,-0.01077 -0.223414,-0.02344 z M 19.17,20.7 c 0.05973,-0.066 0.122099,-0.12 0.138599,-0.12 0.0165,0 -0.01887,0.054 -0.0786,0.12 -0.05973,0.066 -0.122099,0.12 -0.138599,0.12 -0.0165,0 0.01887,-0.054 0.0786,-0.12 z M 4.0442993,20.085 3.93,19.95 4.065,20.064299 c 0.07425,0.06287 0.135,0.123615 0.135,0.135 0,0.04801 -0.048288,0.01257 -0.1557007,-0.114299 z M 19.68,20.197346 c 0,-0.01246 0.04725,-0.05971 0.105,-0.105 0.09516,-0.07463 0.09729,-0.07251 0.02265,0.02265 -0.07838,0.09995 -0.12765,0.131733 -0.12765,0.08235 z M 7.9723464,18.375 c -0.074632,-0.09516 -0.07251,-0.09729 0.022654,-0.02265 0.05775,0.04529 0.105,0.09254 0.105,0.105 0,0.04938 -0.049271,0.0176 -0.127654,-0.08235 z m -0.66,-0.66 c -0.074632,-0.09516 -0.07251,-0.09729 0.022654,-0.02265 0.05775,0.04529 0.105,0.09254 0.105,0.105 0,0.04938 -0.049271,0.0176 -0.127654,-0.08235 z M 2.28,17.471468 C 2.28,17.432161 2.2341,17.4 2.178,17.4 2.115448,17.4 2.098044,17.37919 2.133,17.34618 2.16435,17.31658 2.9865,16.908947 3.96,16.440323 4.9335,15.9717 5.7735698,15.53847 5.8268218,15.477591 5.8800738,15.416711 7.7565738,14.475476 9.996822,13.385957 L 14.07,11.405018 14.1,6.7975092 C 14.129674,2.24 14.131302,2.19 14.25,2.19 c 0.11896,0 0.12,0.04 0.12,4.6134606 0,4.0399504 -0.01119,4.6193084 -0.09,4.6604954 -0.0495,0.02587 -1.9125,0.928574 -4.14,2.006012 -2.2275,1.077439 -4.0843458,2.003442 -4.1263242,2.057784 -0.041978,0.05434 -0.063603,0.131955 -0.048055,0.172471 0.016928,0.04411 -0.00563,0.06066 -0.056229,0.04124 -0.1004857,-0.03856 -3.445821,1.566665 -3.5543909,1.705538 -0.04433,0.0567 -0.075,0.06671 -0.075,0.02447 z m 19.26,-0.216004 c 0,-0.01142 0.0405,-0.05438 0.09,-0.09546 0.05188,-0.04305 0.09,-0.04888 0.09,-0.01377 0,0.03351 -0.0405,0.07647 -0.09,0.09546 -0.0495,0.019 -0.09,0.02519 -0.09,0.01377 z"
       id="path1734" />
    <path
       style="fill:#2b276f;stroke-width:1"
       d="m 2.133,17.346185 c 0.03135,-0.0296 0.8535,-0.43811 1.827,-0.907804 0.9735,-0.469694 1.812626,-0.890978 1.8647245,-0.936185 0.052098,-0.04521 0.1094863,-0.0822 0.1275286,-0.0822 0.089154,0 8.1783159,-3.972002 8.2192559,-4.035881 0.02613,-0.04077 0.04097,-2.132872 0.033,-4.6491256 -0.0096,-3.0196793 0.0059,-4.5750033 0.0455,-4.5749969 0.0396,6.3e-6 0.05552,1.5836686 0.04682,4.6573421 l -0.0132,4.6573364 -0.436815,0.194689 C 12.949997,12.069074 6.087663,15.431429 6.03,15.499385 5.997,15.538275 5.5785,15.756929 5.1,15.985282 4.6215,16.213636 3.7780499,16.625365 3.2256665,16.900235 2.3067518,17.357495 1.9795956,17.491017 2.133,17.346185 Z"
       id="path1732" />
  </g>
</svg>
